#!OML:ASF H:\ManfredETheater\Project 1\Capture day 1\Session 1\subject.ASF
:FULLY-SPECIFIED
:DEGREES
145
root 3.25779 14.6313 -17.8377 -134.076 -48.16 153.626
lowerback 35.1976 -0.125597 -5.2728
upperback 2.74117 -4.27351 -6.92087
thorax -15.1734 -2.08161 -2.79685
lowerneck -7.34571 -10.9544 -13.2211
upperneck -20.551 -13.7377 16.6833
head -2.73672 -7.51723 7.18585
rclavicle -4.96962e-015 -2.08724e-014
rhumerus 15.7249 -5.79311 -53.9339
rradius 60.1541
rwrist -4.18966
rhand -27.266 0.551818
rfingers 7.12502
rthumb -0.677032 -29.4269
lclavicle -4.96962e-015 -2.08724e-014
lhumerus -41.3257 7.58528 77.354
lradius 89.279
lwrist -5.68933
lhand -43.3419 -18.4803
lfingers 7.12502
lthumb -16.1876 10.8638
rfemur -74.9894 -24.3822 26.5099
rtibia 91.6504
rfoot -34.8933 -11.8473
rtoes -25.1861
lfemur -22.7238 -16.6465 -6.42033
ltibia 62.5674
lfoot 24.6905 -15.2025
ltoes 5.64102
146
root 3.08452 14.7535 -18.2779 -134.381 -46.717 154.869
lowerback 33.8908 0.0356497 -5.25279
upperback 2.39637 -3.89208 -6.82018
thorax -15.0207 -1.90338 -2.88445
lowerneck -8.08756 -10.8093 -12.6782
upperneck -20.59 -13.6133 16.0722
head -2.7552 -7.46315 6.88928
rclavicle -5.56597e-015 3.24019e-014
rhumerus 18.0651 -4.90496 -53.4558
rradius 63.0537
rwrist -3.51703
rhand -27.6781 0.246224
rfingers 7.12502
rthumb -1.07506 -29.7308
lclavicle -5.56597e-015 3.24019e-014
lhumerus -42.5109 7.49816 76.0793
lradius 88.1624
lwrist -5.93698
lhand -43.1665 -17.6056
lfingers 7.12502
lthumb -16.0186 11.7522
rfemur -73.2165 -23.5474 26.8968
rtibia 90.5651
rfoot -34.7511 -10.9894
rtoes -27.4033
lfemur -24.984 -14.0756 -7.38602
ltibia 66.2255
lfoot 24.7431 -12.778
ltoes 13.5026
147
root 2.91381 14.8802 -18.7282 -134.668 -45.2891 155.897
lowerback 32.7815 0.213926 -5.34095
upperback 2.08614 -3.56174 -6.75133
thorax -14.8916 -1.74293 -2.91916
lowerneck -8.7792 -10.6097 -12.0109
upperneck -20.6333 -13.4443 15.3783
head -2.80298 -7.39376 6.55709
rclavicle 4.77083e-015 6.0033e-014
rhumerus 20.2009 -4.03199 -53.0051
rradius 66.1058
rwrist -3.1428
rhand -28.0785 0.024528
rfingers 7.12502
rthumb -1.4617 -29.9502
lclavicle 4.77083e-015 6.0033e-014
lhumerus -43.7128 7.35954 74.7491
lradius 86.9549
lwrist -5.87969
lhand -43.2459 -16.736
lfingers 7.12502
lthumb -16.0952 12.6156
rfemur -71.2773 -22.8996 27.0101
rtibia 89.3819
rfoot -34.7027 -8.81623
rtoes -26.3004
lfemur -27.2093 -11.5959 -8.51199
ltibia 69.7408
lfoot 22.9144 -10.934
ltoes 14.1511
148
root 2.74573 15.0038 -19.1867 -135.107 -43.9674 156.985
lowerback 31.8324 0.437618 -5.36104
upperback 1.77992 -3.16199 -6.67812
thorax -14.8186 -1.55346 -3.00871
lowerneck -9.23707 -10.4379 -11.4868
upperneck -20.7276 -13.2929 14.9367
head -2.86121 -7.33988 6.33745
rclavicle 3.10104e-014 5.32743e-014
rhumerus 22.008 -3.32333 -52.6263
rradius 69.2255
rwrist -3.14354
rhand -28.4277 -0.0431777
rfingers 7.12502
rthumb -1.79899 -30.0153
lclavicle 3.10104e-014 5.32743e-014
lhumerus -44.9125 7.10959 73.4345
lradius 85.656
lwrist -5.72665
lhand -43.0575 -14.1783
lfingers 7.12502
lthumb -15.9138 15.1879
rfemur -69.0693 -22.2784 27.1941
rtibia 88.0256
rfoot -34.3382 -6.88908
rtoes -25.4595
lfemur -29.5062 -9.25543 -9.5816
ltibia 73.1461
lfoot 21.3247 -9.91295
ltoes 16.8437
149
root 2.57798 15.1301 -19.6526 -135.474 -42.6655 157.908
lowerback 30.9936 0.666316 -5.4541
upperback 1.4446 -2.80222 -6.63536
thorax -14.8199 -1.37613 -3.07097
lowerneck -9.50304 -10.2912 -11.1124
upperneck -20.7962 -13.1537 14.6756
head -2.90929 -7.28968 6.2023
rclavicle -7.83212e-014 4.85035e-014
rhumerus 23.4419 -2.49527 -52.2769
rradius 72.4572
rwrist -3.36361
rhand -28.8628 -0.361104
rfingers 7.12502
rthumb -2.21924 -30.3293
lclavicle -7.83212e-014 4.85035e-014
lhumerus -46.4727 7.07688 71.9708
lradius 84.3945
lwrist -5.20886
lhand -42.9274 -12.6807
lfingers 7.12502
lthumb -15.7884 16.6954
rfemur -66.6483 -21.7292 27.2705
rtibia 86.4638
rfoot -33.925 -5.5793
rtoes -26.5379
lfemur -31.9399 -6.91311 -10.7727
ltibia 76.3982
lfoot 18.7825 -9.40736
ltoes 18.1272
150
root 2.41136 15.2383 -20.119 -135.803 -41.4169 158.816
lowerback 30.086 0.878778 -5.5577
upperback 1.11111 -2.46518 -6.62683
thorax -14.784 -1.21018 -3.15173
lowerneck -9.69834 -10.1574 -10.9291
upperneck -20.8014 -12.9851 14.6972
head -2.91066 -7.22188 6.18162
rclavicle -4.49253e-014 5.40694e-014
rhumerus 24.6026 -1.73599 -52.267
rradius 75.6036
rwrist -3.78479
rhand -29.0164 -0.379019
rfingers 7.12502
rthumb -2.36759 -30.3456
lclavicle -4.49253e-014 5.40694e-014
lhumerus -48.1239 6.52623 70.4849
lradius 83.3222
lwrist -3.86337
lhand -42.7456 -11.3205
lfingers 7.12502
lthumb -15.6133 18.0693
rfemur -64.2923 -21.2778 27.3644
rtibia 84.7645
rfoot -33.4282 -3.46644
rtoes -25.0906
lfemur -34.368 -4.74898 -11.7836
ltibia 79.4853
lfoot 16.1145 -8.57075
ltoes 21.9201
151
root 2.24292 15.349 -20.5996 -136.226 -40.3549 159.759
lowerback 29.2522 1.06998 -5.60229
upperback 0.771393 -2.12913 -6.56626
thorax -14.7809 -1.04343 -3.2034
lowerneck -9.83576 -10.0275 -10.7613
upperneck -20.6911 -12.8218 14.6701
head -2.88819 -7.14589 6.14422
rclavicle -6.32135e-014 7.39479e-014
rhumerus 25.4086 -0.984123 -52.5841
rradius 78.6742
rwrist -4.40462
rhand -29.0152 -0.246556
rfingers 7.12502
rthumb -2.36639 -30.2132
lclavicle -6.32135e-014 7.39479e-014
lhumerus -50.0721 6.01576 69.0496
lradius 82.4811
lwrist -2.51555
lhand -42.2328 -11.3154
lfingers 7.12502
lthumb -15.1194 18.1124
rfemur -61.5718 -21.0627 27.7484
rtibia 82.8158
rfoot -32.9328 -2.98213
rtoes -27.9388
lfemur -37.1262 -2.69115 -12.834
ltibia 82.3403
lfoot 13.6869 -9.03696
ltoes 21.5728
152
root 2.0734 15.4613 -21.0941 -136.627 -39.5215 160.788
lowerback 28.2837 1.16554 -5.47427
upperback 0.424218 -1.84411 -6.51647
thorax -14.7259 -0.910385 -3.33666
lowerneck -9.90039 -9.88216 -10.4282
upperneck -20.5582 -12.6521 14.6273
head -2.88134 -7.0757 6.07951
rclavicle -4.25399e-014 -9.62118e-014
rhumerus 25.8585 -0.137785 -53.2071
rradius 81.6935
rwrist -5.33611
rhand -29.0333 0.202404
rfingers 7.12502
rthumb -2.38386 -29.764
lclavicle -4.25399e-014 -9.62118e-014
lhumerus -52.2691 5.36903 67.6195
lradius 81.9808
lwrist -1.211
lhand -41.6497 -12.3325
lfingers 7.12502
lthumb -14.5577 17.1367
rfemur -58.7144 -20.8701 28.22
rtibia 80.567
rfoot -32.4464 -1.49113
rtoes -27.81
lfemur -40.27 -0.737998 -13.8051
ltibia 84.8985
lfoot 11.5964 -10.1364
ltoes 17.1896
